<svg width="28" height="28" viewBox="0 0 24 24" fill="none" xmlns="http://www.w3.org/2000/svg">
<path d="M21.25 7.50001C21.4312 7.50001 21.6063 7.56565 21.7429 7.68477C21.8795 7.8039 21.9684 7.96845 21.993 8.14801L22 8.25001V16.75C22.0001 17.5801 21.6824 18.3788 21.1123 18.9822C20.5422 19.5856 19.7628 19.948 18.934 19.995L18.75 20H6.061L6.781 20.72C6.90787 20.8471 6.98491 21.0155 6.99812 21.1946C7.01134 21.3738 6.95984 21.5517 6.853 21.696L6.78 21.78C6.65301 21.907 6.48466 21.9843 6.30555 21.9977C6.12644 22.011 5.94847 21.9597 5.804 21.853L5.72 21.78L3.72 19.78L3.656 19.708C3.65365 19.7047 3.65132 19.7014 3.649 19.698L3.719 19.78C3.60494 19.665 3.53098 19.5164 3.50811 19.356C3.48523 19.1957 3.51465 19.0323 3.592 18.89C3.62665 18.8277 3.66972 18.7705 3.72 18.72L5.72 16.72C5.854 16.587 6.03321 16.5095 6.22186 16.5029C6.41051 16.4962 6.59473 16.561 6.73775 16.6842C6.88077 16.8074 6.97207 16.98 6.99344 17.1675C7.0148 17.3551 6.96465 17.5438 6.853 17.696L6.78 17.78L6.06 18.5H18.75C19.1893 18.5 19.6126 18.3347 19.9357 18.037C20.2588 17.7392 20.4581 17.3309 20.494 16.893L20.5 16.75V8.25001C20.5 8.05109 20.579 7.86033 20.7197 7.71968C20.8603 7.57902 21.0511 7.50001 21.25 7.50001V7.50001ZM18.196 2.14701L18.28 2.22001L20.28 4.22001C20.3056 4.24527 20.3293 4.27234 20.351 4.30101L20.281 4.22001C20.4086 4.34669 20.4862 4.51522 20.4994 4.69455C20.5126 4.87389 20.4606 5.05196 20.353 5.19601C20.3322 5.22417 20.3094 5.2509 20.285 5.27601L20.28 5.28001L18.28 7.28001C18.146 7.41296 17.9668 7.4905 17.7781 7.49715C17.5895 7.50379 17.4053 7.43905 17.2622 7.31585C17.1192 7.19265 17.0279 7.02004 17.0066 6.83249C16.9852 6.64493 17.0353 6.45622 17.147 6.30401L17.22 6.22001L17.938 5.50001H5.25C4.81081 5.50002 4.38768 5.66518 4.06461 5.96269C3.74154 6.2602 3.54214 6.66831 3.506 7.10601L3.5 7.25001V15.75C3.49994 15.94 3.42776 16.1229 3.29803 16.2618C3.1683 16.4006 2.9907 16.4851 2.80112 16.498C2.61154 16.511 2.42411 16.4515 2.2767 16.3316C2.12929 16.2117 2.0329 16.0403 2.007 15.852L2 15.75V7.25001C1.99995 6.41987 2.31755 5.62118 2.88767 5.01778C3.45779 4.41437 4.23719 4.05201 5.066 4.00501L5.25 4.00001H17.939L17.219 3.28001C17.0921 3.15289 17.0151 2.98447 17.0019 2.80537C16.9887 2.62626 17.0402 2.44836 17.147 2.30401L17.22 2.22001C17.347 2.09299 17.5153 2.01576 17.6945 2.00236C17.8736 1.98897 18.0515 2.04029 18.196 2.14701V2.14701ZM12 8.00001C13.0609 8.00001 14.0783 8.42143 14.8284 9.17158C15.5786 9.92173 16 10.9391 16 12C16 13.0609 15.5786 14.0783 14.8284 14.8284C14.0783 15.5786 13.0609 16 12 16C10.9391 16 9.92172 15.5786 9.17157 14.8284C8.42143 14.0783 8 13.0609 8 12C8 10.9391 8.42143 9.92173 9.17157 9.17158C9.92172 8.42143 10.9391 8.00001 12 8.00001V8.00001ZM12 9.50001C11.337 9.50001 10.7011 9.7634 10.2322 10.2322C9.76339 10.7011 9.5 11.337 9.5 12C9.5 12.663 9.76339 13.2989 10.2322 13.7678C10.7011 14.2366 11.337 14.5 12 14.5C12.663 14.5 13.2989 14.2366 13.7678 13.7678C14.2366 13.2989 14.5 12.663 14.5 12C14.5 11.337 14.2366 10.7011 13.7678 10.2322C13.2989 9.7634 12.663 9.50001 12 9.50001V9.50001Z" fill="#F8F8F8"/>
</svg>
