<svg width="14" height="20" viewBox="0 0 14 20" fill="none" xmlns="http://www.w3.org/2000/svg">
<path d="M7 20C5.14418 19.9977 3.36502 19.2383 2.05275 17.8886C0.740489 16.5388 0.00226408 14.7087 0 12.7999C0.0418609 11.3964 0.44266 10.0291 1.162 8.83578L6.34122 0.349221C6.41603 0.241226 6.51485 0.153187 6.62944 0.0924405C6.74403 0.031694 6.87108 0 7 0C7.12892 0 7.25597 0.031694 7.37056 0.0924405C7.48515 0.153187 7.58397 0.241226 7.65878 0.349221L12.8154 8.79418C13.5469 9.99858 13.9555 11.3805 14 12.7999C13.9977 14.7087 13.2595 16.5388 11.9472 17.8886C10.635 19.2383 8.85582 19.9977 7 20ZM7 2.27806L2.50289 9.6446C1.92344 10.5926 1.59672 11.6808 1.55556 12.7999C1.55556 14.2851 2.12917 15.7095 3.1502 16.7597C4.17123 17.81 5.55604 18.4 7 18.4C8.44396 18.4 9.82877 17.81 10.8498 16.7597C11.8708 15.7095 12.4444 14.2851 12.4444 12.7999C12.4001 11.6652 12.0652 10.5627 11.4738 9.6038L7 2.27806Z" fill="#0D0A0B"/>
</svg>
