<svg width="25" height="20" viewBox="0 0 25 20" fill="none" xmlns="http://www.w3.org/2000/svg">
<path d="M0 18.3333C0 19.2538 0.746191 20 1.66667 20H10.8333C11.7538 20 12.5 19.2538 12.5 18.3333C12.5 17.4129 11.7538 16.6667 10.8333 16.6667H1.66667C0.746191 16.6667 0 17.4129 0 18.3333ZM0 10C0 10.9205 0.746191 11.6667 1.66667 11.6667H23.3333C24.2538 11.6667 25 10.9205 25 10C25 9.07952 24.2538 8.33333 23.3333 8.33333H1.66667C0.746193 8.33333 0 9.07952 0 10ZM0 1.66667C0 2.58714 0.746191 3.33333 1.66667 3.33333H23.3333C24.2538 3.33333 25 2.58714 25 1.66667C25 0.746192 24.2538 0 23.3333 0H1.66667C0.746193 0 0 0.746192 0 1.66667Z" fill="white"/>
</svg>
