<svg width="19" height="18" viewBox="0 0 19 18" fill="none" xmlns="http://www.w3.org/2000/svg">
<path d="M12.6536 1.23579e-05C11.8203 -0.0014889 10.9948 0.153024 10.2247 0.454678C9.4545 0.756333 8.7548 1.19919 8.16574 1.75781C6.97424 2.88695 5.57453 6.0461 4.00688 11.1481L2.79486 12.2967C2.62617 12.2581 2.4532 12.2387 2.27966 12.2391C1.02281 12.2391 0 13.2084 0 14.3994C0 15.3723 0.683898 16.1976 1.61856 16.4669C1.76077 16.9103 2.04957 17.2986 2.44237 17.5747C2.83517 17.8507 3.31118 17.9998 3.80019 18C4.40461 17.9994 4.9841 17.7716 5.41149 17.3666C5.83888 16.9616 6.07925 16.4124 6.07985 15.8397C6.07985 15.6747 6.05933 15.5113 6.01906 15.3514L7.23184 14.2043C8.57456 13.8341 10.4743 13.2789 12.2478 12.6567L13.124 12.3485L12.6301 11.5996C12.3259 11.1445 12.1629 10.6175 12.1597 10.0787C12.1597 8.49016 13.5229 7.19828 15.1992 7.19828C16.0412 7.19828 16.8277 7.52521 17.4136 8.12003L18.2965 9.01657L18.6932 7.84638C19.0521 6.79455 19.0971 5.66915 18.8231 4.59461C18.5491 3.52008 17.9669 2.53829 17.1408 1.75781C16.5519 1.19911 15.8524 0.756203 15.0823 0.45454C14.3123 0.152877 13.4869 -0.00159119 12.6536 1.23579e-05ZM12.6521 1.44024C13.8884 1.44024 15.1233 1.88455 16.064 2.77605C16.5537 3.23862 16.9323 3.79592 17.1738 4.40987C17.4154 5.02381 17.5143 5.67994 17.4637 6.33342C16.7762 5.95453 15.9946 5.75593 15.1992 5.75805C12.6848 5.75805 10.6399 7.69588 10.6399 10.0787C10.6399 10.5893 10.7387 11.0963 10.9287 11.5766C9.80577 11.9472 8.67373 12.2924 7.53351 12.6121L5.68547 10.8608C7.03959 6.58114 8.32228 3.64523 9.2387 2.77605C9.68694 2.35153 10.2192 2.01501 10.8049 1.78578C11.3907 1.55656 12.0184 1.43913 12.6521 1.44024ZM4.99701 12.2448L6.07301 13.2645L4.20369 15.036L4.46585 15.5062C4.52816 15.6171 4.55932 15.7295 4.55932 15.8397C4.55057 16.0251 4.46668 16.2001 4.32513 16.3284C4.18359 16.4567 3.99528 16.5283 3.79943 16.5283C3.60358 16.5283 3.41528 16.4567 3.27373 16.3284C3.13218 16.2001 3.0483 16.0251 3.03955 15.8397V15.1195H2.27966C2.084 15.1112 1.89926 15.0318 1.76391 14.8976C1.62855 14.7635 1.553 14.585 1.553 14.3994C1.553 14.2138 1.62855 14.0354 1.76391 13.9012C1.89926 13.7671 2.084 13.6876 2.27966 13.6793C2.40282 13.6811 2.52363 13.7115 2.63149 13.7679L3.12693 14.0185L4.99701 12.2448Z" fill="#0D0A0B"/>
</svg>
