<svg width="214" height="214" viewBox="0 0 214 214" fill="none" xmlns="http://www.w3.org/2000/svg">
<path d="M80.2501 101.65C83.0879 101.65 85.8095 100.523 87.8161 98.516C89.8227 96.5094 90.9501 93.7878 90.9501 90.95C90.9501 88.1122 89.8227 85.3906 87.8161 83.384C85.8095 81.3773 83.0879 80.25 80.2501 80.25C77.4122 80.25 74.6906 81.3773 72.684 83.384C70.6774 85.3906 69.55 88.1122 69.55 90.95C69.55 93.7878 70.6774 96.5094 72.684 98.516C74.6906 100.523 77.4122 101.65 80.2501 101.65Z" fill="#34D399"/>
<path d="M144.45 90.95C144.45 93.7878 143.323 96.5094 141.316 98.516C139.309 100.523 136.588 101.65 133.75 101.65C130.912 101.65 128.191 100.523 126.184 98.516C124.177 96.5094 123.05 93.7878 123.05 90.95C123.05 88.1122 124.177 85.3906 126.184 83.384C128.191 81.3773 130.912 80.25 133.75 80.25C136.588 80.25 139.309 81.3773 141.316 83.384C143.323 85.3906 144.45 88.1122 144.45 90.95V90.95Z" fill="#34D399"/>
<path d="M145.113 143.273C144.011 144.154 142.606 144.564 141.203 144.413C139.8 144.263 138.513 143.565 137.623 142.47L137.591 142.438C137.127 141.925 136.638 141.436 136.125 140.972C134.457 139.471 132.639 138.144 130.7 137.013C125.767 134.124 117.999 131.075 107.021 131.075C96.0427 131.075 88.2638 134.114 83.3097 137.024C81.368 138.156 79.5467 139.482 77.8741 140.983C77.3575 141.447 76.8647 141.936 76.3975 142.449L76.3654 142.481C75.9228 143.027 75.377 143.48 74.7592 143.815C74.1413 144.15 73.4636 144.36 72.7646 144.433C72.0656 144.506 71.3591 144.441 70.6854 144.241C70.0116 144.041 69.3839 143.71 68.838 143.268C68.2921 142.825 67.8387 142.279 67.5038 141.661C67.1688 141.044 66.9588 140.366 66.8858 139.667C66.8128 138.968 66.8781 138.261 67.0781 137.588C67.2782 136.914 67.6089 136.286 68.0515 135.74L72.2245 139.1L68.0515 135.751V135.74L68.0729 135.729L68.0943 135.708L68.1478 135.644L68.2976 135.451L68.8219 134.873C69.2499 134.413 69.8705 133.782 70.6837 133.054C72.3101 131.578 74.6962 129.673 77.8955 127.801C84.3155 124.024 93.9455 120.375 107.021 120.375C120.086 120.375 129.705 124.013 136.125 127.801C139.335 129.684 141.71 131.578 143.326 133.044C144.161 133.806 144.954 134.613 145.701 135.462L145.862 135.644L145.915 135.708L145.937 135.74C145.937 135.74 145.948 135.762 141.775 139.1L145.948 135.762C146.831 136.869 147.24 138.282 147.083 139.69C146.927 141.098 146.218 142.387 145.113 143.273V143.273Z" fill="#34D399"/>
<path d="M107 21.4C84.2975 21.4 62.5248 30.4186 46.4717 46.4717C30.4186 62.5248 21.4 84.2975 21.4 107C21.4 129.703 30.4186 151.475 46.4717 167.528C62.5248 183.581 84.2975 192.6 107 192.6C129.703 192.6 151.475 183.581 167.528 167.528C183.581 151.475 192.6 129.703 192.6 107C192.6 84.2975 183.581 62.5248 167.528 46.4717C151.475 30.4186 129.703 21.4 107 21.4V21.4ZM32.1 107C32.1 97.164 34.0374 87.4243 37.8014 78.337C41.5655 69.2497 47.0826 60.9928 54.0377 54.0377C60.9928 47.0826 69.2497 41.5655 78.337 37.8014C87.4243 34.0374 97.164 32.1 107 32.1C116.836 32.1 126.576 34.0374 135.663 37.8014C144.75 41.5655 153.007 47.0826 159.962 54.0377C166.917 60.9928 172.435 69.2497 176.199 78.337C179.963 87.4243 181.9 97.164 181.9 107C181.9 126.865 174.009 145.916 159.962 159.962C145.916 174.009 126.865 181.9 107 181.9C87.1353 181.9 68.0842 174.009 54.0377 159.962C39.9913 145.916 32.1 126.865 32.1 107Z" fill="#34D399"/>
</svg>
