<?xml version="1.0" standalone="no"?>
<!DOCTYPE svg PUBLIC "-//W3C//DTD SVG 20010904//EN"
 "http://www.w3.org/TR/2001/REC-SVG-20010904/DTD/svg10.dtd">
<svg version="1.0" xmlns="http://www.w3.org/2000/svg"
 width="700.000000pt" height="700.000000pt" viewBox="0 0 700.000000 700.000000"
 preserveAspectRatio="xMidYMid meet">
<metadata>
Created by potrace 1.14, written by Peter Selinger 2001-2017
</metadata>
<g transform="translate(0.000000,700.000000) scale(0.100000,-0.100000)"
fill="#000000" stroke="none">
<path d="M0 3500 l0 -3500 3500 0 3500 0 0 3500 0 3500 -3500 0 -3500 0 0
-3500z m4170 2293 c16 -9 34 -27 41 -40 12 -21 18 -23 103 -23 186 0 396 -50
533 -125 99 -55 217 -178 273 -285 132 -249 335 -481 595 -679 61 -46 109 -87
108 -92 -2 -4 3 -6 11 -3 7 3 19 -2 26 -11 12 -15 6 -16 -76 -10 -627 45
-1114 225 -1415 525 -167 166 -218 261 -228 430 l-6 105 -32 -95 c-18 -52 -37
-122 -44 -155 -13 -70 -16 -235 -5 -317 7 -54 9 -57 44 -69 151 -48 284 -162
351 -301 64 -135 90 -270 111 -583 24 -348 39 -419 168 -761 147 -392 190
-544 213 -757 28 -269 -54 -553 -225 -776 -382 -497 -1223 -617 -1976 -282
-425 189 -725 503 -837 876 -25 84 -27 104 -27 280 -1 234 15 309 105 490 99
201 233 361 528 627 323 292 358 333 561 638 153 230 220 318 302 396 138 133
278 194 446 197 l92 1 0 113 c0 192 35 361 105 510 33 70 110 193 121 193 3 0
19 -8 34 -17z"/>
<path d="M4335 5652 c200 -100 271 -157 575 -462 354 -355 461 -439 723 -565
177 -85 211 -92 61 -12 -264 140 -385 237 -709 562 -308 311 -437 409 -639
490 -134 54 -137 50 -11 -13z"/>
<path d="M3730 4755 c-152 -43 -241 -136 -490 -510 -199 -299 -246 -352 -613
-685 -365 -332 -497 -537 -526 -820 -43 -408 204 -777 674 -1013 279 -140 588
-206 900 -194 529 22 884 262 1011 684 23 76 27 106 27 223 0 206 -34 341
-194 768 -147 391 -156 431 -189 850 -36 456 -77 564 -246 650 -98 50 -264 72
-354 47z"/>
</g>
</svg>
