<svg width="26" height="15" viewBox="0 0 26 15" fill="none" xmlns="http://www.w3.org/2000/svg">
<path d="M1 8.7498C1 8.0286 1.1596 7.3128 1.5826 6.729C2.827 5.01 6.2026 1.5 13 1.5C19.798 1.5 23.173 5.0106 24.4174 6.729C24.8404 7.3128 25 8.0286 25 8.7498C25 10.0096 24.4995 11.2179 23.6087 12.1087C22.7179 12.9995 21.5096 13.5 20.2498 13.5H5.7502C4.49037 13.5 3.28214 12.9995 2.3913 12.1087C1.50047 11.2179 1 10.0096 1 8.7498V8.7498Z" stroke="#0D0A0B" stroke-width="2" stroke-linecap="round" stroke-linejoin="round"/>
<path d="M7 2.7V5.1" stroke="#0D0A0B" stroke-width="2" stroke-linecap="round"/>
<path d="M19 2.7V5.1" stroke="#0D0A0B" stroke-width="2" stroke-linecap="round"/>
<path d="M13 1.5V6.3" stroke="#0D0A0B" stroke-width="2" stroke-linecap="round"/>
<path d="M22.6 4.7658C20.7436 3.168 17.6848 1.5 13 1.5C8.31522 1.5 5.25642 3.1674 3.40002 4.7658" stroke="#0D0A0B" stroke-width="2" stroke-linecap="round"/>
</svg>
