<svg width="160" height="160" viewBox="0 0 160 160" fill="none" xmlns="http://www.w3.org/2000/svg">
<path d="M80 8C80 3.58172 76.4093 -0.04145 72.0131 0.39964C59.175 1.68773 46.7966 6.06726 35.9592 13.2137C22.8883 21.833 12.634 34.0984 6.46701 48.4897C0.30005 62.881 -1.50839 78.7656 1.26581 94.1749C4.04001 109.584 11.2749 123.841 22.0738 135.178C32.8728 146.514 46.761 154.433 62.0173 157.953C77.2736 161.472 93.2273 160.437 107.901 154.977C122.575 149.516 135.324 139.87 144.568 127.233C152.233 116.756 157.208 104.604 159.118 91.8441C159.773 87.4745 156.328 83.712 151.915 83.4974V83.4974C147.502 83.2828 143.801 86.7026 143.038 91.0545C141.349 100.685 137.469 109.838 131.655 117.786C124.259 127.896 114.06 135.613 102.321 139.981C90.5819 144.35 77.8189 145.178 65.6138 142.362C53.4088 139.547 42.2982 133.212 33.6591 124.142C25.0199 115.073 19.232 103.667 17.0126 91.3399C14.7933 79.0125 16.24 66.3048 21.1736 54.7918C26.1072 43.2787 34.3107 33.4664 44.7674 26.5709C52.989 21.1494 62.3194 17.7184 72.0206 16.4993C76.4044 15.9485 80 12.4183 80 8V8Z" fill="url(#paint0_linear)"/>
<defs>
<linearGradient id="paint0_linear" x1="146.5" y1="595.5" x2="80" y2="2.93061e-05" gradientUnits="userSpaceOnUse">
<stop stop-color="#5386E4"/>
<stop offset="1" stop-color="#35CE8D"/>
</linearGradient>
</defs>
</svg>
