<svg width="100" height="100" viewBox="0 0 100 100" fill="none" xmlns="http://www.w3.org/2000/svg">
<rect width="100" height="100" rx="23" fill="url(#paint0_linear)"/>
<path fill-rule="evenodd" clip-rule="evenodd" d="M39.7365 42.6528C44.7905 37.5906 47.1598 27.6752 55.9277 28.7104C55.6681 26.1553 55.743 21.2246 58.9779 17.095C59.2359 16.7657 60.4601 17.803 60.2346 18.1557C62.5027 18.0206 70.2004 18.0242 73.1622 24.0048C76.6074 30.961 84.0317 35.3815 84.0317 35.3815C81.782 34.3921 79.5553 33.2326 77.5072 31.7717C75.4559 30.3146 73.6281 28.5969 71.903 26.7821C70.1636 24.9896 68.4353 23.0577 66.3029 21.4637C65.2626 20.6817 64.15 20.001 62.9802 19.4308C62.0525 19.0026 61.0926 18.6481 60.1093 18.3704L60.0802 18.4171C62.1639 19.2505 64.2183 20.3641 66.0098 21.8371C67.9497 23.4229 69.5969 25.2828 71.3557 27.1202C73.1118 28.9503 75.0734 30.7716 77.2773 32.1938C78.3533 32.8933 79.4747 33.5202 80.6341 34.0706C81.738 34.5785 82.8728 35.0163 84.0317 35.3815C84.0317 35.3815 66.7119 35.5025 60.0817 25.0597C59.0371 23.4138 59.0029 21.4751 59.1735 20.0796C57.4009 23.8639 57.6406 27.3029 58.0716 29.1535C67.2532 31.8508 63.9019 41.9921 66.1445 48.9939C67.8212 54.2278 71.9171 61.7795 70.295 68.494C67.517 80.0093 55.3398 83.1781 44.5539 80.5886C33.7658 77.9986 24.3676 69.6523 27.1485 58.1343C28.7715 51.4112 35.8353 46.5587 39.7365 42.6528V42.6528ZM31.7536 68.575C34.2633 72.6764 39.3326 75.9827 45.3138 77.4186C54.1792 79.547 64.786 77.4209 67.1266 67.7277C68.1514 63.4823 66.2005 58.4084 64.4781 53.9327C63.9431 52.5433 63.4387 51.2317 63.0397 49.9879C62.2261 47.4451 62.0498 44.7479 61.8811 42.1397C61.4644 35.6948 60.9063 33.163 56.6596 32.1435L56.6469 32.1404C52.1899 31.0749 50.2467 33.2789 46.5596 38.9521C45.2068 41.034 43.8089 43.1878 42.0414 44.9578C41.1246 45.8757 40.0883 46.8028 38.991 47.788C35.4081 50.9968 31.3481 54.6332 30.3169 58.9006C29.4764 62.3877 29.959 65.6436 31.7536 68.575" fill="#F3EFF5"/>
<defs>
<linearGradient id="paint0_linear" x1="0" y1="0" x2="100" y2="100" gradientUnits="userSpaceOnUse">
<stop stop-color="#60A5FA"/>
<stop offset="1" stop-color="#34D399"/>
</linearGradient>
</defs>
</svg>
